<svg xmlns="http://www.w3.org/2000/svg" viewBox="0 0 1200 600">
  <!-- Background gradient -->
  <defs>
    <linearGradient id="bg-gradient" x1="0%" y1="0%" x2="100%" y2="100%">
      <stop offset="0%" style="stop-color:#1a4d80;stop-opacity:1" />
      <stop offset="100%" style="stop-color:#083358;stop-opacity:1" />
    </linearGradient>
    <!-- Overlay for text readability -->
    <linearGradient id="overlay-gradient" x1="0%" y1="0%" x2="0%" y2="100%">
      <stop offset="0%" style="stop-color:rgba(0,0,0,0.3);stop-opacity:1" />
      <stop offset="100%" style="stop-color:rgba(0,0,0,0.6);stop-opacity:1" />
    </linearGradient>
  </defs>
  
  <!-- Main background -->
  <rect width="100%" height="100%" fill="url(#bg-gradient)" />
  
  <!-- Abstract medical pattern -->
  <g opacity="0.15" fill="#ffffff">
    <!-- Medical cross symbols -->
    <path d="M200,100 h20 v-20 h20 v20 h20 v20 h-20 v20 h-20 v-20 h-20 z" />
    <path d="M800,400 h20 v-20 h20 v20 h20 v20 h-20 v20 h-20 v-20 h-20 z" />
    <path d="M300,500 h15 v-15 h15 v15 h15 v15 h-15 v15 h-15 v-15 h-15 z" />
    <path d="M900,200 h15 v-15 h15 v15 h15 v15 h-15 v15 h-15 v-15 h-15 z" />
    <path d="M500,300 h15 v-15 h15 v15 h15 v15 h-15 v15 h-15 v-15 h-15 z" />
    <path d="M1000,100 h15 v-15 h15 v15 h15 v15 h-15 v15 h-15 v-15 h-15 z" />
    <path d="M100,450 h15 v-15 h15 v15 h15 v15 h-15 v15 h-15 v-15 h-15 z" />
  </g>
  
  <!-- Heartbeat line -->
  <path d="M-50,300 L100,300 L150,200 L200,400 L250,150 L300,300 L1250,300" 
        stroke="#ffffff" stroke-width="3" fill="none" opacity="0.2" />
  
  <!-- Medical icons -->
  <!-- Stethoscope -->
  <g transform="translate(700, 150) scale(0.5)" fill="#ffffff" opacity="0.15">
    <path d="M480,180 C480,80.5 400,0 300,0 S120,80.5 120,180 V300 H180 V180 C180,114 232,60 300,60 S420,114 420,180 V300 H480 V180 Z" />
    <circle cx="120" cy="350" r="40" />
    <circle cx="480" cy="350" r="40" />
    <path d="M120,390 L120,480 C120,590 210,680 320,680 S520,590 520,480 L520,390" />
  </g>
  
  <!-- Caduceus (simplified medical symbol) -->
  <g transform="translate(200, 150) scale(0.2)" fill="#ffffff" opacity="0.15">
    <rect x="180" y="0" width="40" height="800" />
    <path d="M100,100 C0,200 0,400 100,500 C200,400 200,200 100,100 Z" />
    <path d="M300,100 C400,200 400,400 300,500 C200,400 200,200 300,100 Z" />
    <circle cx="200" cy="150" r="30" />
  </g>
  
  <!-- Doctor silhouette -->
  <g transform="translate(600, 230)" opacity="0.3">
    <!-- Head -->
    <circle cx="0" cy="-60" r="30" fill="#ffffff" />
    <!-- Body -->
    <path d="M-25,-30 L25,-30 L35,100 L-35,100 Z" fill="#ffffff" />
    <!-- Stethoscope -->
    <path d="M-5,-30 C-10,-10 -15,10 -25,15 C-15,25 -5,20 0,10" stroke="#ffffff" stroke-width="3" fill="none" />
  </g>
  
  <!-- Patient silhouette -->
  <g transform="translate(500, 250)" opacity="0.3">
    <!-- Head -->
    <circle cx="0" cy="-50" r="25" fill="#ffffff" />
    <!-- Body -->
    <path d="M-20,-25 L20,-25 L25,80 L-25,80 Z" fill="#ffffff" />
  </g>
  
  <!-- Overlay for text readability -->
  <rect width="100%" height="100%" fill="url(#overlay-gradient)" />
</svg>
